<?xml version="1.0" encoding="utf-8"?>
<!-- Generator: Adobe Illustrator 25.0.1, SVG Export Plug-In . SVG Version: 6.00 Build 0)  -->
<svg version="1.1" id="Layer_1" xmlns="http://www.w3.org/2000/svg" xmlns:xlink="http://www.w3.org/1999/xlink" x="0px" y="0px"
	 viewBox="0 0 302.8 302.8" style="enable-background:new 0 0 302.8 302.8;" xml:space="preserve">
<style type="text/css">
	.st0{fill:#FFFFFF;}
</style>
<path id="XMLID_6_" class="st0" d="M4.3,174.2l62.5,62.5c2.9,2.9,6.8,4.4,10.6,4.4s7.7-1.5,10.6-4.4l62.5-62.5
	c5.9-5.8,5.9-15.3,0-21.2c-5.8-5.9-15.3-5.9-21.2,0l-38.8,38.8c4.3-47.3,39.2-88.3,88.1-98c35.8-7.1,72.7,4,98.7,29.6
	c5.9,5.8,15.4,5.7,21.2-0.2c5.8-5.9,5.7-15.4-0.2-21.2c-33.1-32.6-80.1-46.7-125.6-37.6c-61.9,12.3-106.1,63.9-112,123.7L25.6,153
	c-5.8-5.9-15.3-5.9-21.2,0S-1.5,168.4,4.3,174.2z"/>
</svg>
