<?xml version="1.0" encoding="utf-8"?>
<!-- Generator: Adobe Illustrator 25.0.1, SVG Export Plug-In . SVG Version: 6.00 Build 0)  -->
<svg version="1.1" id="Layer_1" xmlns="http://www.w3.org/2000/svg" xmlns:xlink="http://www.w3.org/1999/xlink" x="0px" y="0px"
	 viewBox="0 0 302.8 302.8" style="enable-background:new 0 0 302.8 302.8;" xml:space="preserve">
<style type="text/css">
	.st0{fill:#FFFFFF;}
</style>
<path id="XMLID_2_" class="st0" d="M79.2,240.8c0.5,0,1-0.1,1.5-0.2l0,0c0.1,0,0.1,0,0.2,0c0.5-0.1,0.9-0.2,1.3-0.3
	c0.1-0.1,0.2-0.1,0.4-0.2c0.3-0.1,0.6-0.2,0.9-0.3c0.2-0.1,0.4-0.2,0.6-0.3c0.2-0.1,0.5-0.2,0.7-0.3c0.2-0.1,0.5-0.3,0.7-0.4
	c0.1-0.1,0.3-0.2,0.5-0.3c0.3-0.2,0.6-0.4,0.9-0.6c0.1,0,0.2-0.1,0.3-0.2c0.4-0.3,0.8-0.7,1.1-1l0,0l0,0c0.1-0.1,0.1-0.1,0.1-0.1
	l62.3-62.5c2.9-2.9,4.4-6.8,4.4-10.6s-1.5-7.7-4.4-10.6c-5.8-5.9-15.3-5.9-21.2,0l-39,38.9c4.2-47.3,39.1-88.3,88-98.1
	c30.7-6.2,62.3,1.1,87.1,19.5c4.1,3,7.9,6.3,11.6,9.9c5.9,5.8,15.4,5.7,21.2-0.2c2.5-2.6,3.9-5.8,4.2-9.1c0.1-0.5,0.1-0.9,0.1-1.4
	c0-3-0.9-6.1-2.8-8.7c-0.5-0.7-1.1-1.4-1.7-2c-15.5-15.3-34.1-26.5-54.1-33.1c-0.3-0.1-0.7-0.2-1-0.3c-22.4-7.2-46.6-8.7-70.4-4
	c-61.9,12.4-106,64-111.8,123.8l-35.1-35.1c-5.8-5.9-15.3-5.9-21.2,0c-5.9,5.8-5.9,15.3,0,21.2L67,236.8l0,0c0.3,0.3,0.7,0.7,1.1,1
	c0.1,0.1,0.3,0.3,0.5,0.4c0.2,0.2,0.4,0.4,0.6,0.5c0.3,0.2,0.6,0.3,0.9,0.5c0.1,0,0.3,0.1,0.4,0.2c0.3,0.1,0.6,0.3,0.9,0.4
	c0.2,0.1,0.3,0.1,0.5,0.2c0.3,0.1,0.5,0.2,0.8,0.3c0.2,0.1,0.4,0.1,0.6,0.2s0.4,0.1,0.6,0.2c0.3,0.1,0.5,0.1,0.8,0.2
	c0.2,0.1,0.3,0.1,0.5,0.1c0.4,0,0.7,0.1,1,0.1c0.1,0,0.3,0,0.4,0c0.3,0,0.7,0,1,0c0.3,0,0.5,0,0.7,0C78.6,241,78.9,241,79.2,240.8z"
	/>
</svg>
